<svg width="125" height="125" viewBox="0 0 125 125" fill="none" xmlns="http://www.w3.org/2000/svg">
<g clip-path="url(#clip0_460_97)">
<path d="M125 100.062V91.75H116.268C115.732 89.1483 114.699 86.6744 113.225 84.4641L119.418 78.2713L113.541 72.3943L107.348 78.5872C105.138 77.1134 102.664 76.0804 100.062 75.5448V66.8125H91.75V75.5448C89.1483 76.0808 86.6744 77.1138 84.4641 78.5872L78.2713 72.3943L72.3943 78.2713L78.5872 84.4641C77.1134 86.6742 76.0804 89.1482 75.5448 91.75H66.8125V100.062H75.5448C76.081 102.664 77.114 105.138 78.5872 107.348L72.3943 113.541L78.2713 119.418L84.4641 113.225C86.6742 114.699 89.1482 115.732 91.75 116.268V125H100.062V116.268C102.664 115.732 105.138 114.699 107.348 113.225L113.541 119.418L119.418 113.541L113.225 107.348C114.699 105.138 115.732 102.664 116.268 100.062H125ZM95.9062 108.375C89.0318 108.375 83.4375 102.781 83.4375 95.9062C83.4375 89.0318 89.0318 83.4375 95.9062 83.4375C102.781 83.4375 108.375 89.0318 108.375 95.9062C108.375 102.781 102.781 108.375 95.9062 108.375ZM75.125 62.6562H41.875C39.6704 62.6562 37.5561 61.7805 35.9972 60.2216C34.4383 58.6627 33.5625 56.5484 33.5625 54.3438V8.625C33.5625 6.42039 34.4383 4.30607 35.9972 2.74717C37.5561 1.18828 39.6704 0.3125 41.875 0.3125H75.125C77.3296 0.3125 79.4439 1.18828 81.0028 2.74717C82.5617 4.30607 83.4375 6.42039 83.4375 8.625V54.3438C83.4375 56.5484 82.5617 58.6627 81.0028 60.2216C79.4439 61.7805 77.3296 62.6562 75.125 62.6562ZM41.875 54.3438H75.125V8.625H41.875V54.3438Z" fill="#0066FF"/>
<path d="M62.6562 79.2812H25.25C23.0454 79.2812 20.9311 78.4055 19.3722 76.8466C17.8133 75.2877 16.9375 73.1734 16.9375 70.9688V21.0938H25.25V70.9688H62.6562V79.2812Z" fill="#0066FF"/>
<path d="M46.0312 95.9062H8.625C4.04066 95.9062 0.3125 92.1781 0.3125 87.5938V37.7188H8.625V87.5938H46.0312V95.9062Z" fill="#0066FF"/>
</g>
<defs>
<clipPath id="clip0_460_97">
<rect width="125" height="125" fill="white"/>
</clipPath>
</defs>
</svg>
