<svg width="131" height="131" viewBox="0 0 131 131" fill="none" xmlns="http://www.w3.org/2000/svg">
<path d="M116.213 0.297729H14.787C6.74539 0.297729 0.297607 6.74551 0.297607 14.7871V116.213C0.297607 120.056 1.82416 123.741 4.54145 126.458C7.25874 129.176 10.9442 130.702 14.787 130.702H116.213C124.254 130.702 130.702 124.254 130.702 116.213V14.7871C130.702 10.9443 129.176 7.25886 126.458 4.54157C123.741 1.82429 120.056 0.297729 116.213 0.297729ZM95.2031 93.7543C87.7411 93.7543 80.6413 90.8564 75.2802 85.4954L70.6436 80.8588L80.9311 70.6437L85.4952 75.2079C87.416 77.1333 89.8649 78.4456 92.5319 78.9785C95.1989 79.5114 97.9641 79.2411 100.477 78.2016C102.991 77.1622 105.139 75.4004 106.65 73.1394C108.162 70.8784 108.968 68.2197 108.968 65.5C108.968 61.8493 107.518 58.3482 104.936 55.7667C102.355 53.1853 98.8538 51.7351 95.2031 51.7351C91.5808 51.7351 88.1033 53.184 85.4952 55.7921L55.7195 85.4954C53.1132 88.1255 50.0092 90.2104 46.5886 91.6284C43.1681 93.0463 39.4994 93.769 35.7966 93.7543C20.2205 93.7543 7.5423 81.0761 7.5423 65.5C7.5423 49.9239 20.2205 37.2457 35.7966 37.2457C43.3311 37.2457 50.3585 40.1436 55.7195 45.5046L60.3561 50.1412L50.0687 60.4287L45.5045 55.7921C42.8964 53.184 39.419 51.7351 35.7966 51.7351C32.1459 51.7351 28.6448 53.1853 26.0634 55.7667C23.4819 58.3482 22.0317 61.8493 22.0317 65.5C22.0317 69.1507 23.4819 72.6518 26.0634 75.2333C28.6448 77.8147 32.1459 79.2649 35.7966 79.2649C39.419 79.2649 42.8964 77.816 45.5045 75.2079L75.2802 45.5046C77.8866 42.8745 80.9906 40.7896 84.4111 39.3716C87.8317 37.9537 91.5003 37.231 95.2031 37.2457C110.779 37.2457 123.457 49.9239 123.457 65.5C123.457 81.0761 110.779 93.7543 95.2031 93.7543Z" fill="#0066FF"/>
</svg>
