<svg width="249" height="640" viewBox="0 0 249 640" fill="none" xmlns="http://www.w3.org/2000/svg">
<rect width="16.672" height="17.01" transform="matrix(-0.717441 0.696619 0.696619 0.717441 203.341 185.825)" fill="#0066FF" fill-opacity="0.1"/>
<rect width="16.672" height="17.01" transform="matrix(-0.717441 0.696619 0.696619 0.717441 43.8577 340.678)" fill="#0066FF" fill-opacity="0.1"/>
<rect width="16.672" height="17.01" transform="matrix(-0.717441 0.696619 0.696619 0.717441 114.955 413.901)" fill="#0066FF" fill-opacity="0.1"/>
<rect width="16.672" height="17.01" transform="matrix(-0.717441 0.696619 0.696619 0.717441 186.052 487.123)" fill="#0066FF" fill-opacity="0.1"/>
<rect width="16.672" height="17.01" transform="matrix(-0.717441 0.696619 0.696619 0.717441 257.15 560.345)" fill="#0066FF" fill-opacity="0.1"/>
<rect width="16.672" height="17.01" transform="matrix(-0.717441 0.696619 0.696619 0.717441 227.04 210.232)" fill="#0066FF" fill-opacity="0.1"/>
<rect width="16.672" height="17.01" transform="matrix(-0.717441 0.696619 0.696619 0.717441 67.5579 365.086)" fill="#0066FF" fill-opacity="0.1"/>
<rect width="16.672" height="17.01" transform="matrix(-0.717441 0.696619 0.696619 0.717441 138.654 438.308)" fill="#0066FF" fill-opacity="0.1"/>
<rect width="16.672" height="17.01" transform="matrix(-0.717441 0.696619 0.696619 0.717441 209.751 511.529)" fill="#0066FF" fill-opacity="0.1"/>
<rect width="16.672" height="17.01" transform="matrix(-0.717441 0.696619 0.696619 0.717441 250.738 234.639)" fill="#0066FF" fill-opacity="0.1"/>
<rect width="16.672" height="17.01" transform="matrix(-0.717441 0.696619 0.696619 0.717441 91.2563 389.493)" fill="#0066FF" fill-opacity="0.1"/>
<rect width="16.672" height="17.01" transform="matrix(-0.717441 0.696619 0.696619 0.717441 162.354 462.715)" fill="#0066FF" fill-opacity="0.1"/>
<rect width="16.672" height="17.01" transform="matrix(-0.717441 0.696619 0.696619 0.717441 233.451 535.938)" fill="#0066FF" fill-opacity="0.1"/>
<rect width="16.672" height="17.01" transform="matrix(-0.717441 0.696619 0.696619 0.717441 139.547 247.767)" fill="#0066FF" fill-opacity="0.1"/>
<rect width="16.672" height="17.01" transform="matrix(-0.717441 0.696619 0.696619 0.717441 210.645 320.989)" fill="#0066FF" fill-opacity="0.1"/>
<rect width="16.672" height="17.01" transform="matrix(-0.717441 0.696619 0.696619 0.717441 163.247 272.174)" fill="#0066FF" fill-opacity="0.1"/>
<rect width="16.672" height="17.01" transform="matrix(-0.717441 0.696619 0.696619 0.717441 234.343 345.396)" fill="#0066FF" fill-opacity="0.1"/>
<rect width="16.672" height="17.01" transform="matrix(-0.717441 0.696619 0.696619 0.717441 186.946 296.581)" fill="#0066FF" fill-opacity="0.1"/>
<rect width="16.672" height="17.01" transform="matrix(-0.717441 0.696619 0.696619 0.717441 258.042 369.804)" fill="#0066FF" fill-opacity="0.1"/>
<rect width="16.672" height="17.01" transform="matrix(-0.717441 0.696619 0.696619 0.717441 235.237 154.854)" fill="#0066FF" fill-opacity="0.1"/>
<rect width="16.672" height="17.01" transform="matrix(-0.717441 0.696619 0.696619 0.717441 258.936 179.262)" fill="#0066FF" fill-opacity="0.1"/>
<rect width="16.672" height="17.01" transform="matrix(-0.717441 0.696619 0.696619 0.717441 171.445 216.795)" fill="#0066FF" fill-opacity="0.1"/>
<rect width="16.672" height="17.01" transform="matrix(-0.717441 0.696619 0.696619 0.717441 11.9617 371.649)" fill="#0066FF" fill-opacity="0.1"/>
<rect width="16.672" height="17.01" transform="matrix(-0.717441 0.696619 0.696619 0.717441 242.542 290.018)" fill="#0066FF" fill-opacity="0.1"/>
<rect width="16.672" height="17.01" transform="matrix(-0.717441 0.696619 0.696619 0.717441 83.0591 444.871)" fill="#0066FF" fill-opacity="0.1"/>
<rect width="16.672" height="17.01" transform="matrix(-0.717441 0.696619 0.696619 0.717441 154.156 518.094)" fill="#0066FF" fill-opacity="0.1"/>
<rect width="16.672" height="17.01" transform="matrix(-0.717441 0.696619 0.696619 0.717441 225.254 591.315)" fill="#0066FF" fill-opacity="0.1"/>
<rect width="16.672" height="17.01" transform="matrix(-0.717441 0.696619 0.696619 0.717441 195.144 241.203)" fill="#0066FF" fill-opacity="0.1"/>
<rect width="16.672" height="17.01" transform="matrix(-0.717441 0.696619 0.696619 0.717441 35.6616 396.057)" fill="#0066FF" fill-opacity="0.1"/>
<rect width="16.672" height="17.01" transform="matrix(-0.717441 0.696619 0.696619 0.717441 106.758 469.278)" fill="#0066FF" fill-opacity="0.1"/>
<rect width="16.672" height="17.01" transform="matrix(-0.717441 0.696619 0.696619 0.717441 177.855 542.5)" fill="#0066FF" fill-opacity="0.1"/>
<rect width="16.672" height="17.01" transform="matrix(-0.717441 0.696619 0.696619 0.717441 248.952 615.723)" fill="#0066FF" fill-opacity="0.1"/>
<rect width="16.672" height="17.01" transform="matrix(-0.717441 0.696619 0.696619 0.717441 218.842 265.61)" fill="#0066FF" fill-opacity="0.1"/>
<rect width="16.672" height="17.01" transform="matrix(-0.717441 0.696619 0.696619 0.717441 59.3604 420.464)" fill="#0066FF" fill-opacity="0.1"/>
<rect width="16.672" height="17.01" transform="matrix(-0.717441 0.696619 0.696619 0.717441 130.458 493.686)" fill="#0066FF" fill-opacity="0.1"/>
<rect width="16.672" height="17.01" transform="matrix(-0.717441 0.696619 0.696619 0.717441 201.555 566.908)" fill="#0066FF" fill-opacity="0.1"/>
<rect width="16.672" height="17.01" transform="matrix(-0.717441 0.696619 0.696619 0.717441 107.651 278.737)" fill="#0066FF" fill-opacity="0.1"/>
<rect width="16.672" height="17.01" transform="matrix(-0.717441 0.696619 0.696619 0.717441 178.749 351.959)" fill="#0066FF" fill-opacity="0.1"/>
<rect width="16.672" height="17.01" transform="matrix(-0.717441 0.696619 0.696619 0.717441 249.846 425.182)" fill="#0066FF" fill-opacity="0.1"/>
<rect width="16.672" height="17.01" transform="matrix(-0.717441 0.696619 0.696619 0.717441 131.351 303.145)" fill="#0066FF" fill-opacity="0.1"/>
<rect width="16.672" height="17.01" transform="matrix(-0.717441 0.696619 0.696619 0.717441 202.447 376.366)" fill="#0066FF" fill-opacity="0.1"/>
<rect width="16.672" height="17.01" transform="matrix(-0.717441 0.696619 0.696619 0.717441 155.049 327.551)" fill="#0066FF" fill-opacity="0.1"/>
<rect width="16.672" height="17.01" transform="matrix(-0.717441 0.696619 0.696619 0.717441 226.146 400.774)" fill="#0066FF" fill-opacity="0.1"/>
<rect width="16.672" height="17.01" transform="matrix(-0.717441 0.696619 0.696619 0.717441 75.7539 309.708)" fill="#0066FF" fill-opacity="0.1"/>
<rect width="16.672" height="17.01" transform="matrix(-0.717441 0.696619 0.696619 0.717441 146.851 382.93)" fill="#0066FF" fill-opacity="0.1"/>
<rect width="16.672" height="17.01" transform="matrix(-0.717441 0.696619 0.696619 0.717441 217.949 456.152)" fill="#0066FF" fill-opacity="0.1"/>
<rect width="16.672" height="17.01" transform="matrix(-0.717441 0.696619 0.696619 0.717441 99.4539 334.116)" fill="#0066FF" fill-opacity="0.1"/>
<rect width="16.672" height="17.01" transform="matrix(-0.717441 0.696619 0.696619 0.717441 170.55 407.337)" fill="#0066FF" fill-opacity="0.1"/>
<rect width="16.672" height="17.01" transform="matrix(-0.717441 0.696619 0.696619 0.717441 241.647 480.559)" fill="#0066FF" fill-opacity="0.1"/>
<rect width="16.672" height="17.01" transform="matrix(-0.717441 0.696619 0.696619 0.717441 123.153 358.523)" fill="#0066FF" fill-opacity="0.1"/>
<rect width="16.672" height="17.01" transform="matrix(-0.717441 0.696619 0.696619 0.717441 194.25 431.745)" fill="#0066FF" fill-opacity="0.1"/>
</svg>
