<svg width="608" height="88" viewBox="0 0 608 88" fill="none" xmlns="http://www.w3.org/2000/svg">
<path d="M-4.1582 0H551.115L607.342 88H-4.1582V0Z" fill="#0066FF"/>
<path d="M483.183 62.8864C479.44 62.8864 476.228 61.9394 473.546 60.0455C470.88 58.1364 468.827 55.3864 467.387 51.7955C465.963 48.1894 465.251 43.8485 465.251 38.7727C465.266 33.697 465.986 29.3788 467.41 25.8182C468.849 22.2424 470.902 19.5152 473.569 17.6364C476.251 15.7576 479.455 14.8182 483.183 14.8182C486.91 14.8182 490.115 15.7576 492.796 17.6364C495.478 19.5152 497.531 22.2424 498.955 25.8182C500.395 29.3939 501.115 33.7121 501.115 38.7727C501.115 43.8636 500.395 48.2121 498.955 51.8182C497.531 55.4091 495.478 58.1515 492.796 60.0455C490.13 61.9394 486.925 62.8864 483.183 62.8864ZM483.183 55.7727C486.092 55.7727 488.387 54.3409 490.069 51.4773C491.766 48.5985 492.615 44.3636 492.615 38.7727C492.615 35.0758 492.228 31.9697 491.455 29.4545C490.683 26.9394 489.592 25.0455 488.183 23.7727C486.774 22.4848 485.107 21.8409 483.183 21.8409C480.289 21.8409 478.001 23.2803 476.319 26.1591C474.637 29.0227 473.789 33.2273 473.774 38.7727C473.758 42.4848 474.13 45.6061 474.887 48.1364C475.66 50.6667 476.751 52.5758 478.16 53.8636C479.569 55.1364 481.243 55.7727 483.183 55.7727ZM525.37 62.6364C522.097 62.6364 519.188 62.0758 516.643 60.9545C514.113 59.8333 512.113 58.2727 510.643 56.2727C509.173 54.2727 508.393 51.9621 508.302 49.3409H516.847C516.923 50.5985 517.34 51.697 518.097 52.6364C518.855 53.5606 519.863 54.2803 521.12 54.7955C522.378 55.3106 523.787 55.5682 525.347 55.5682C527.014 55.5682 528.491 55.2803 529.779 54.7045C531.067 54.1136 532.075 53.2955 532.802 52.25C533.529 51.2045 533.885 50 533.87 48.6364C533.885 47.2273 533.522 45.9848 532.779 44.9091C532.037 43.8333 530.961 42.9924 529.552 42.3864C528.158 41.7803 526.476 41.4773 524.507 41.4773H520.393V34.9773H524.507C526.128 34.9773 527.544 34.697 528.757 34.1364C529.984 33.5758 530.946 32.7879 531.643 31.7727C532.34 30.7424 532.681 29.553 532.666 28.2045C532.681 26.8864 532.385 25.7424 531.779 24.7727C531.188 23.7879 530.347 23.0227 529.257 22.4773C528.181 21.9318 526.916 21.6591 525.461 21.6591C524.037 21.6591 522.719 21.9167 521.507 22.4318C520.294 22.947 519.317 23.6818 518.575 24.6364C517.832 25.5758 517.438 26.697 517.393 28H509.279C509.34 25.3939 510.09 23.1061 511.529 21.1364C512.984 19.1515 514.923 17.6061 517.347 16.5C519.772 15.3788 522.491 14.8182 525.507 14.8182C528.613 14.8182 531.31 15.4015 533.597 16.5682C535.901 17.7197 537.681 19.2727 538.938 21.2273C540.196 23.1818 540.825 25.3409 540.825 27.7045C540.84 30.3258 540.067 32.5227 538.507 34.2955C536.961 36.0682 534.931 37.2273 532.416 37.7727V38.1364C535.688 38.5909 538.196 39.803 539.938 41.7727C541.696 43.7273 542.567 46.1591 542.552 49.0682C542.552 51.6742 541.81 54.0076 540.325 56.0682C538.855 58.1136 536.825 59.7197 534.234 60.8864C531.658 62.053 528.704 62.6364 525.37 62.6364Z" fill="white"/>
</svg>
