<svg width="537" height="88" viewBox="0 0 537 88" fill="none" xmlns="http://www.w3.org/2000/svg">
<path d="M-4.1582 0H477.617L536.842 88H-4.1582V0Z" fill="#0066FF"/>
<path d="M412.183 67.8864C408.44 67.8864 405.228 66.9394 402.546 65.0455C399.88 63.1364 397.827 60.3864 396.387 56.7955C394.963 53.1894 394.251 48.8485 394.251 43.7727C394.266 38.697 394.986 34.3788 396.41 30.8182C397.849 27.2424 399.902 24.5152 402.569 22.6364C405.251 20.7576 408.455 19.8182 412.183 19.8182C415.91 19.8182 419.115 20.7576 421.796 22.6364C424.478 24.5152 426.531 27.2424 427.955 30.8182C429.395 34.3939 430.115 38.7121 430.115 43.7727C430.115 48.8636 429.395 53.2121 427.955 56.8182C426.531 60.4091 424.478 63.1515 421.796 65.0455C419.13 66.9394 415.925 67.8864 412.183 67.8864ZM412.183 60.7727C415.092 60.7727 417.387 59.3409 419.069 56.4773C420.766 53.5985 421.615 49.3636 421.615 43.7727C421.615 40.0758 421.228 36.9697 420.455 34.4545C419.683 31.9394 418.592 30.0455 417.183 28.7727C415.774 27.4848 414.107 26.8409 412.183 26.8409C409.289 26.8409 407.001 28.2803 405.319 31.1591C403.637 34.0227 402.789 38.2273 402.774 43.7727C402.758 47.4848 403.13 50.6061 403.887 53.1364C404.66 55.6667 405.751 57.5758 407.16 58.8636C408.569 60.1364 410.243 60.7727 412.183 60.7727ZM437.666 67V60.9091L453.825 45.0682C455.37 43.5076 456.658 42.1212 457.688 40.9091C458.719 39.697 459.491 38.5227 460.007 37.3864C460.522 36.25 460.779 35.0379 460.779 33.75C460.779 32.2803 460.446 31.0227 459.779 29.9773C459.113 28.9167 458.196 28.0985 457.029 27.5227C455.863 26.947 454.537 26.6591 453.052 26.6591C451.522 26.6591 450.181 26.9773 449.029 27.6136C447.878 28.2348 446.984 29.1212 446.347 30.2727C445.726 31.4242 445.416 32.7955 445.416 34.3864H437.393C437.393 31.4318 438.067 28.8636 439.416 26.6818C440.764 24.5 442.62 22.8106 444.984 21.6136C447.363 20.4167 450.09 19.8182 453.166 19.8182C456.287 19.8182 459.029 20.4015 461.393 21.5682C463.757 22.7348 465.59 24.3333 466.893 26.3636C468.211 28.3939 468.87 30.7121 468.87 33.3182C468.87 35.0606 468.537 36.7727 467.87 38.4545C467.204 40.1364 466.029 42 464.347 44.0455C462.681 46.0909 460.34 48.5682 457.325 51.4773L449.302 59.6364V59.9545H469.575V67H437.666Z" fill="white"/>
</svg>
