<svg width="466" height="88" viewBox="0 0 466 88" fill="none" xmlns="http://www.w3.org/2000/svg">
<path d="M-4.1582 0H411L466 88H-4.1582V0Z" fill="#0066FF"/>
<path d="M358.341 67.8864C354.598 67.8864 351.386 66.9394 348.705 65.0455C346.038 63.1364 343.985 60.3864 342.545 56.7955C341.121 53.1894 340.409 48.8485 340.409 43.7727C340.424 38.697 341.144 34.3788 342.568 30.8182C344.008 27.2424 346.061 24.5152 348.727 22.6364C351.409 20.7576 354.614 19.8182 358.341 19.8182C362.068 19.8182 365.273 20.7576 367.955 22.6364C370.636 24.5152 372.689 27.2424 374.114 30.8182C375.553 34.3939 376.273 38.7121 376.273 43.7727C376.273 48.8636 375.553 53.2121 374.114 56.8182C372.689 60.4091 370.636 63.1515 367.955 65.0455C365.288 66.9394 362.083 67.8864 358.341 67.8864ZM358.341 60.7727C361.25 60.7727 363.545 59.3409 365.227 56.4773C366.924 53.5985 367.773 49.3636 367.773 43.7727C367.773 40.0758 367.386 36.9697 366.614 34.4545C365.841 31.9394 364.75 30.0455 363.341 28.7727C361.932 27.4848 360.265 26.8409 358.341 26.8409C355.447 26.8409 353.159 28.2803 351.477 31.1591C349.795 34.0227 348.947 38.2273 348.932 43.7727C348.917 47.4848 349.288 50.6061 350.045 53.1364C350.818 55.6667 351.909 57.5758 353.318 58.8636C354.727 60.1364 356.402 60.7727 358.341 60.7727ZM402.756 20.4545V67H394.324V28.6591H394.051L383.165 35.6136V27.8864L394.733 20.4545H402.756Z" fill="white"/>
</svg>
