<svg width="108" height="95" viewBox="0 0 108 95" fill="none" xmlns="http://www.w3.org/2000/svg">
<path d="M26.5766 78H15.5623V35.2216H1.45674V26.0548H40.6821V35.2216H26.5766V78Z" fill="#0066FF"/>
<path d="M46.4303 78.1914V38.511H54.844V78.1914H46.4303Z" fill="#EF1212"/>
<path d="M81.2251 39.627C79.4097 39.627 77.7984 39.9839 76.391 40.6978C75.004 41.3913 73.8312 42.401 72.8725 43.7268C71.9342 45.0526 71.2204 46.6537 70.7308 48.5303C70.2413 50.4068 69.9965 52.5179 69.9965 54.8635C69.9965 58.0251 70.3841 60.7277 71.1592 62.9713C71.9546 65.1946 73.1785 66.8977 74.8306 68.0808C76.4828 69.2434 78.6143 69.8247 81.2251 69.8247C83.0404 69.8247 84.8557 69.6207 86.6711 69.2128C88.5068 68.8049 90.4955 68.2236 92.6372 67.4689V75.4237C90.6587 76.2396 88.7108 76.8209 86.7935 77.1676C84.8761 77.5348 82.7243 77.7184 80.3378 77.7184C75.7281 77.7184 71.9342 76.7699 68.9563 74.873C65.9987 72.9557 63.806 70.2836 62.3783 66.857C60.9505 63.4099 60.2366 59.3917 60.2366 54.8023C60.2366 51.4164 60.6955 48.3161 61.6134 45.5013C62.5312 42.6865 63.8774 40.2491 65.652 38.189C67.4265 36.1289 69.6192 34.5379 72.23 33.4161C74.8408 32.2942 77.8392 31.7333 81.2251 31.7333C83.4484 31.7333 85.6716 32.0189 87.8949 32.59C90.1386 33.1407 92.2803 33.9056 94.32 34.8847L91.2604 42.5947C89.5878 41.7992 87.9051 41.1057 86.2121 40.5142C84.5192 39.9227 82.8568 39.627 81.2251 39.627Z" fill="black"/>
<circle cx="50.5318" cy="31.3299" r="4.04255" fill="#EF1212"/>
<circle cx="50.5318" cy="31.3299" r="2.02128" fill="white"/>
</svg>
