<svg width="140" height="126" viewBox="0 0 140 126" fill="none" xmlns="http://www.w3.org/2000/svg">
<g clip-path="url(#clip0_460_104)">
<path d="M125.916 14.6065H103.759L95.0924 5.27341C93.7898 3.85889 92.2033 2.72865 90.4342 1.9549C88.6651 1.18115 86.7522 0.780901 84.8178 0.779724H55.1824C51.2683 0.779724 47.494 2.43893 44.838 5.27341L36.2409 14.6065H14.0842C6.39576 14.6065 0.105225 20.8285 0.105225 28.4332V111.394C0.105225 118.998 6.39576 125.22 14.0842 125.22H63.0106V110.771C45.8864 107.868 32.187 94.7324 28.832 77.9329C27.9933 73.7157 31.488 69.9134 35.7516 69.9134C39.1765 69.9134 41.9024 72.3331 42.6013 75.6515C45.3272 88.1647 56.5104 97.5668 70.0001 97.5668C83.4898 97.5668 94.673 88.1647 97.329 75.6515C98.028 72.3331 100.824 69.9134 104.179 69.9134C108.442 69.9134 111.937 73.7157 111.098 77.9329C109.425 86.1822 105.263 93.7362 99.1613 99.5986C93.0597 105.461 85.3049 109.356 76.9197 110.771V125.22H125.846C133.535 125.22 139.825 118.998 139.825 111.394V28.4332C139.895 20.8285 133.604 14.6065 125.916 14.6065ZM83.9791 69.9134C83.9791 77.5181 77.6886 83.7401 70.0001 83.7401C62.3117 83.7401 56.0211 77.5181 56.0211 69.9134V42.2599C56.0211 34.6552 62.3117 28.4332 70.0001 28.4332C77.6886 28.4332 83.9791 34.6552 83.9791 42.2599V69.9134Z" fill="#0066FF"/>
</g>
<defs>
<clipPath id="clip0_460_104">
<rect width="140" height="126" fill="white"/>
</clipPath>
</defs>
</svg>
